<?xml version="1.0" standalone="no"?>
<!DOCTYPE svg PUBLIC "-//W3C//DTD SVG 20010904//EN"
 "http://www.w3.org/TR/2001/REC-SVG-20010904/DTD/svg10.dtd">
<svg version="1.0" xmlns="http://www.w3.org/2000/svg"
 width="422.000000pt" height="423.000000pt" viewBox="0 0 422.000000 423.000000"
 preserveAspectRatio="xMidYMid meet">

<g transform="translate(0.000000,423.000000) scale(0.100000,-0.100000)"
fill="#000000" stroke="none">
<path d="M1980 3783 c-19 -2 -83 -12 -141 -23 -806 -150 -1390 -815 -1426
-1625 -26 -577 248 -1140 718 -1478 112 -80 339 -195 464 -236 483 -155 987
-101 1419 153 299 176 524 419 676 731 103 210 157 414 167 628 l6 117 -136 0
-135 0 -7 -67 c-36 -393 -168 -686 -424 -944 -247 -248 -542 -387 -894 -419
-678 -64 -1304 359 -1506 1015 -54 179 -66 254 -66 440 1 193 15 284 72 450
70 204 192 393 363 565 241 242 521 371 896 412 l104 11 0 132 c0 129 -1 133
-22 139 -24 6 -66 6 -128 -1z"/>
<path d="M2009 3359 c-256 -22 -538 -144 -724 -313 l-50 -45 60 -56 c33 -30
79 -71 102 -91 l41 -35 70 54 c204 157 478 236 723 207 295 -34 546 -174 715
-399 315 -420 270 -997 -106 -1355 -199 -188 -437 -286 -701 -286 -254 0 -502
92 -684 254 -22 20 -43 36 -46 36 -10 0 -174 -180 -177 -195 -4 -16 93 -102
178 -160 155 -104 339 -175 528 -205 96 -16 325 -13 424 4 516 92 920 474
1050 992 19 77 22 117 22 289 1 186 -1 208 -26 308 -163 643 -742 1054 -1399
996z"/>
<path d="M1975 2946 c-241 -48 -450 -186 -581 -382 -112 -169 -160 -342 -151
-544 10 -213 78 -388 215 -549 143 -169 409 -301 604 -301 l68 0 0 133 0 132
-73 12 c-99 16 -175 46 -262 104 -93 63 -155 132 -205 231 -174 346 -2 754
365 871 101 32 282 31 375 -2 226 -80 387 -272 423 -503 l11 -68 138 0 c159 0
146 -12 128 115 -50 347 -298 628 -647 731 -110 32 -299 41 -408 20z"/>
<path d="M2073 2349 c-88 -16 -173 -83 -209 -166 -25 -57 -24 -167 2 -224 26
-55 79 -111 137 -141 58 -31 173 -32 237 -2 215 100 219 408 7 508 -60 28
-114 36 -174 25z"/>
</g>
</svg>
